<?xml version="1.0" standalone="no"?><!DOCTYPE svg PUBLIC "-//W3C//DTD SVG 1.1//EN" "http://www.w3.org/Graphics/SVG/1.1/DTD/svg11.dtd"><svg t="1583822076000" class="icon" viewBox="0 0 1024 1024" version="1.1" xmlns="http://www.w3.org/2000/svg" p-id="2005" xmlns:xlink="http://www.w3.org/1999/xlink" width="24" height="24"><defs><style type="text/css"></style></defs><path d="M958.00888889 129.70666667v764.58666666H65.99111111V129.70666667h892.01777778m0-63.71555556H65.99111111c-35.15733333 0-63.71555555 28.55822222-63.71555556 63.71555556v764.58666666c0 35.15733333 28.55822222 63.71555555 63.71555556 63.71555556h892.01777778c35.15733333 0 63.71555555-28.55822222 63.71555556-63.71555556V129.70666667c0-35.15733333-28.55822222-63.71555555-63.71555556-63.71555556z" p-id="2006"></path><path d="M410.05511111 356.92088889L668.55822222 512 410.05511111 667.07911111V356.92088889m0.11377778-63.82933334c-33.22311111 0-63.82933333 26.51022222-63.82933334 63.82933334v310.15822222c0 37.31911111 30.60622222 63.82933333 63.82933334 63.82933334 10.92266667 0 22.18666667-2.84444445 32.65422222-9.216L701.32622222 566.61333333c41.30133333-24.80355555 41.30133333-84.53688889 0-109.22666666L442.82311111 302.30755555c-10.46755555-6.37155555-21.73155555-9.216-32.65422222-9.216z" p-id="2007"></path></svg>