<?xml version="1.0" standalone="no"?><!DOCTYPE svg PUBLIC "-//W3C//DTD SVG 1.1//EN" "http://www.w3.org/Graphics/SVG/1.1/DTD/svg11.dtd"><svg t="1579057764778" class="icon" viewBox="0 0 1128 1024" version="1.1" xmlns="http://www.w3.org/2000/svg" p-id="4045" width="26.4375" height="24" xmlns:xlink="http://www.w3.org/1999/xlink"><defs><style type="text/css"></style></defs><path d="M1037.326235 60.573795a30.286897 30.286897 0 0 1 30.286897 30.286897v704.170364a30.286897 30.286897 0 0 1-30.286897 30.286897H90.860692a30.286897 30.286897 0 0 1-30.286897-30.286897V90.860692a30.286897 30.286897 0 0 1 30.286897-30.286897h946.465543m0-60.573795H90.860692a90.860692 90.860692 0 0 0-90.860692 90.860692v704.170364a90.860692 90.860692 0 0 0 90.860692 90.860692h946.465543a90.860692 90.860692 0 0 0 90.860692-90.860692V90.860692a90.860692 90.860692 0 0 0-90.860692-90.860692z" p-id="4046"></path><path d="M564.244898 220.488613a222.608696 222.608696 0 1 1-222.608696 222.608695 222.911565 222.911565 0 0 1 222.608696-222.608695m0-60.573795A283.18249 283.18249 0 1 0 848.033126 443.097308a282.879621 282.879621 0 0 0-282.879621-283.18249zM668.734694 443.097308a105.095534 105.095534 0 0 1-210.191068 0M563.63916 547.889973a105.095534 105.095534 0 1 1 0-209.888198M157.491866 963.426205h810.174505v60.573795H157.491866z" p-id="4047"></path><path d="M491.253475 885.891748h142.954156v107.821355h-142.954156z" p-id="4048"></path></svg>