<?xml version="1.0" standalone="no"?><!DOCTYPE svg PUBLIC "-//W3C//DTD SVG 1.1//EN" "http://www.w3.org/Graphics/SVG/1.1/DTD/svg11.dtd"><svg t="1583822088394" class="icon" viewBox="0 0 1024 1024" version="1.1" xmlns="http://www.w3.org/2000/svg" p-id="2131" xmlns:xlink="http://www.w3.org/1999/xlink" width="24" height="24"><defs><style type="text/css"></style></defs><path d="M509.952 307.2c-111.04711111 0-197.97333333 89.31555555-197.97333333 203.20711111 0 114.00533333 86.92622222 203.20711111 197.97333333 203.20711111 109.11288889 0 197.97333333-91.136 197.97333333-203.20711111 0-111.95733333-88.86044445-203.20711111-197.97333333-203.20711111z m0 320.17066667c-63.82933333 0-113.89155555-51.31377778-113.89155555-116.96355556 0-65.536 50.06222222-116.96355555 113.89155555-116.96355556 63.82933333 0 113.89155555 51.42755555 113.89155555 116.96355556 0 65.64977778-49.94844445 116.96355555-113.89155555 116.96355556z m500.28088889-216.17777778c-5.46133333-37.20533333-30.37866667-65.19466667-65.64977778-73.15911111l-5.91644444-0.91022223c-26.39644445-6.94044445-44.71466667-22.07288889-60.75733334-50.176-14.67733333-25.14488889-18.31822222-55.06844445-10.80888888-77.36888888 14.336-34.24711111 4.43733333-74.52444445-23.0968889-98.64533334-47.33155555-45.96622222-103.424-80.66844445-163.84-102.05866666-31.97155555-14.10844445-67.584-5.46133333-95.232 22.86933333l-3.29955555 3.86844445c-28.44444445 37.20533333-92.95644445 48.92444445-146.65955555-6.144-14.56355555-14.90488889-45.96622222-37.66044445-95.11822223-20.59377778-62.57777778 27.19288889-114.91555555 59.27822222-157.35466667 96.02844444-30.49244445 22.30044445-43.23555555 62.35022222-31.40266666 97.96266667 7.85066667 31.97155555 4.55111111 61.32622222-9.55733334 87.26755555-11.83288889 21.16266667-35.15733333 38.79822222-62.9191111 47.44533334-8.87466667 1.47911111-15.47377778 5.12-20.48 9.10222222-19.11466667 11.37777778-33.45066667 28.78577778-43.5768889 53.02044444l-3.41333333 10.46755556v4.66488889c-6.03022222 32.54044445-8.87466667 63.82933333-8.87466667 97.96266667 0 26.85155555 1.70666667 65.64977778 9.67111112 99.66933333 5.57511111 37.09155555 30.49244445 64.85333333 65.64977778 72.81777777l5.91644444 0.91022223c26.39644445 6.94044445 44.60088889 21.95911111 60.75733333 50.06222222 14.67733333 25.14488889 18.31822222 55.06844445 10.80888889 77.48266667-14.336 34.24711111-4.43733333 74.52444445 23.09688889 98.64533333 47.78666667 46.53511111 104.78933333 81.23733333 169.30133333 103.31022222l6.48533334 2.27555556h0.22755555c3.98222222 1.13777778 9.216 2.27555555 15.47377778 2.27555555h6.71288889c23.77955555 0 47.67288889-10.46755555 67.69777778-31.28888888 32.19911111-39.02577778 95.45955555-48.58311111 147.68355555 4.89244444 17.97688889 18.432 39.59466667 28.672 60.87111111 28.672 7.39555555 0 20.93511111 0 31.97155556-5.68888889 61.55377778-26.73777778 113.20888889-58.25422222 157.696-96.14222222 29.696-20.13866667 43.008-61.78133333 31.06133333-97.96266667-7.85066667-31.97155555-4.55111111-61.32622222 9.55733333-87.15377778 11.83288889-21.27644445 35.15733333-38.79822222 62.91911112-47.44533333 8.98844445-1.36533333 15.47377778-5.12 20.59377778-9.216 19.11466667-11.37777778 33.33688889-28.672 43.4631111-52.90666667l3.41333334-10.46755555v-4.66488889c6.03022222-32.54044445 8.87466667-63.94311111 8.76088889-101.48977778-2.38933333-32.42666667-4.77866667-65.87733333-11.83288889-98.19022222z m-80.09955556 185.57155556c-3.18577778 5.91644445-5.57511111 7.05422222-6.82666666 7.73688888l-0.79644445 0.45511112c-49.03822222 15.01866667-89.88444445 46.76266667-112.86755555 87.83644444-25.25866667 46.08-31.28888889 99.10044445-17.408 153.37244444l0.68266666 3.98222222-2.73066666 2.38933334c-37.20533333 32.19911111-80.896 59.16444445-135.50933334 83.51288889-0.91022222-0.56888889-2.16177778-1.59288889-3.75466666-3.18577778-40.16355555-41.18755555-86.58488889-62.91911111-134.48533334-62.91911111-53.81688889 0-103.65155555 23.09688889-134.37155555 60.64355556-3.18577778 3.29955555-5.91644445 3.41333333-5.91644445 3.41333333l-7.168-2.27555556h-1.36533333c-50.28977778-18.09066667-94.54933333-45.73866667-131.86844445-81.92l-2.61688888-4.66488889c16.83911111-48.92444445 10.46755555-106.15466667-16.72533334-152.80355555-28.44444445-49.60711111-67.24266667-79.41688889-118.44266666-91.136l-3.29955556-0.45511111 0.34133334-1.59288889-0.91022223-5.12c-4.89244445-20.25244445-7.62311111-49.03822222-7.62311111-81.00977778 0-29.80977778 2.38933333-55.75111111 7.85066667-84.08177778 3.072-5.80266667 5.57511111-7.05422222 6.82666667-7.73688889l0.68266666-0.45511111c49.03822222-15.01866667 89.99822222-46.76266667 112.86755556-87.83644444 25.25866667-46.08 31.28888889-99.10044445 16.15644444-156.78577778l3.18577778-2.84444445c38.45688889-33.33688889 83.74044445-60.98488889 135.50933333-83.62666666 2.95822222-1.024 4.096-1.024 6.03022223 1.024 40.16355555 41.18755555 86.58488889 62.91911111 134.48533333 62.91911111 55.75111111 0 103.87911111-21.95911111 135.73688889-61.89511111 2.16177778-2.048 3.86844445-2.73066667 4.20977778-2.16177778 51.88266667 18.432 97.73511111 46.76266667 136.41955555 84.30933334l2.61688889 4.66488888c-16.83911111 48.92444445-10.46755555 106.15466667 16.72533333 152.80355556 28.44444445 49.60711111 67.12888889 79.41688889 118.44266667 91.136l2.73066666 0.45511111c0.11377778 0.34133333 0.22755555 0.91022222 0.34133334 1.70666667l0.79644444 4.32355555c5.91644445 26.28266667 7.96444445 55.63733333 10.01244445 84.08177778-0.11377778 29.46844445-2.50311111 55.52355555-7.96444445 83.74044445z" p-id="2132"></path></svg>