<?xml version="1.0" standalone="no"?><!DOCTYPE svg PUBLIC "-//W3C//DTD SVG 1.1//EN" "http://www.w3.org/Graphics/SVG/1.1/DTD/svg11.dtd"><svg t="1579058323504" class="icon" viewBox="0 0 1024 1024" version="1.1" xmlns="http://www.w3.org/2000/svg" p-id="4358" xmlns:xlink="http://www.w3.org/1999/xlink" width="24" height="24"><defs><style type="text/css"></style></defs><path d="M512 512m-320 0a320 320 0 1 0 640 0 320 320 0 1 0-640 0Z" fill="#45B54C" p-id="4359"></path><path d="M512 0C228.266667 0 0 228.266667 0 512s228.266667 512 512 512 512-228.266667 512-512S795.733333 0 512 0z m0 981.333333C251.733333 981.333333 42.666667 772.266667 42.666667 512S251.733333 42.666667 512 42.666667s469.333333 211.2 469.333333 469.333333-209.066667 469.333333-469.333333 469.333333z" fill="#45B54C" p-id="4360"></path></svg>