<?xml version="1.0" standalone="no"?><!DOCTYPE svg PUBLIC "-//W3C//DTD SVG 1.1//EN" "http://www.w3.org/Graphics/SVG/1.1/DTD/svg11.dtd"><svg t="1583822273036" class="icon" viewBox="0 0 1024 1024" version="1.1" xmlns="http://www.w3.org/2000/svg" p-id="3158" xmlns:xlink="http://www.w3.org/1999/xlink" width="24" height="24"><defs><style type="text/css"></style></defs><path d="M659.43697747 888.3251523h-22.53532223l-102.07175364 102.07175364c-7.06990501 7.06990501-16.64373472 11.04672658-26.65943347 11.04672658-10.01569877 0-19.58952848-3.97682157-26.6594335-11.04672658L368.5398441 877.27842573c-22.24074286-22.24074286-10.89943689-65.24933169 34.02391787-66.4276492 3.24037312-0.1472897 7.95364315 1.76747625 10.31027814 4.12411126l95.44371768 95.44371768h0.14728971l86.45904673-86.45904674c7.06990501-7.06990501 16.64373472-11.04672658 26.65943349-11.04672657h38.14802913M264.11145545 525.99252034c-42.56671978 0-74.38129234-47.42727948-45.36522383-92.20334455 2.50392469-3.82953187 5.89158752-7.2171947 9.72111939-9.72111941 44.7760651-29.01606849 92.20334457 2.79850407 92.20334455 45.36522384 0 31.22541381-25.48111599 56.55924012-56.55924011 56.55924012z m255.69489799 0c-42.56671978 0-74.38129234-47.27998978-45.36522382-92.20334455 2.50392469-3.82953187 5.89158752-7.2171947 9.72111939-9.72111941 44.7760651-29.01606849 92.20334457 2.79850407 92.20334456 45.36522384 0 31.22541381-25.48111599 56.55924012-56.55924013 56.55924012z m255.69489803 0c-42.56671978 0-74.38129234-47.42727948-45.36522384-92.20334455 2.50392469-3.82953187 5.89158752-7.2171947 9.72111938-9.72111941 44.7760651-29.01606849 92.20334457 2.79850407 92.20334456 45.36522384 0 31.22541381-25.48111599 56.55924012-56.5592401 56.55924012z m0 0" p-id="3159"></path><path d="M899.37187889 892.44926356H634.25044085c-24.45008817 0-44.18690634-19.73681815-44.18690632-44.18690633s19.73681815-44.18690634 44.18690632-44.18690635h265.12143804c24.30279849 0 44.18690634-19.88410785 44.18690634-44.18690633v-584.74006053c0-24.30279849-19.88410785-44.18690634-44.18690634-44.18690633H127.57391486c-24.30279849 0-44.18690634 19.88410785-44.18690633 44.18690633v584.74006053c0 24.30279849 19.88410785 44.18690634 44.18690633 44.18690633h257.75695364c24.45008817 0 44.18690634 19.73681815 44.18690635 44.18690635s-19.73681815 44.18690634-44.18690635 44.18690633H127.57391486c-73.05568514 0-132.56071902-59.50503387-132.56071901-132.56071901v-584.74006053c0-73.05568514 59.50503387-132.56071902 132.56071901-132.56071902h771.79796403c73.05568514 0 132.56071902 59.50503387 132.56071901 132.56071902v584.74006053c0 73.20297484-59.50503387 132.56071902-132.56071901 132.56071901z" p-id="3160"></path></svg>